Coordinates
version=1
nRows=14
nColumns=63
inDegrees=yes

Units are S.I. units (second, meters, Newtons, ...)
If the header above contains a line with 'inDegrees', this indicates whether rotational values are in degrees (yes) or radians (no).

endheader
time	pelvis_tilt	pelvis_list	pelvis_rotation	pelvis_tx	pelvis_ty	pelvis_tz	hip_flexion_r	hip_adduction_r	hip_rotation_r	knee_angle_r	knee_angle_r_beta	ankle_angle_r	subtalar_angle_r	mtp_angle_r	hip_flexion_l	hip_adduction_l	hip_rotation_l	knee_angle_l	knee_angle_l_beta	ankle_angle_l	subtalar_angle_l	mtp_angle_l	L5_S1_Flex_Ext	L5_S1_Lat_Bending	L5_S1_axial_rotation	L4_L5_Flex_Ext	L4_L5_Lat_Bending	L4_L5_axial_rotation	L3_L4_Flex_Ext	L3_L4_Lat_Bending	L3_L4_axial_rotation	L2_L3_Flex_Ext	L2_L3_Lat_Bending	L2_L3_axial_rotation	L1_L2_Flex_Ext	L1_L2_Lat_Bending	L1_L2_axial_rotation	L1_T12_Flex_Ext	L1_T12_Lat_Bending	L1_T12_axial_rotation	Abs_r3	Abs_r2	Abs_r1	Abs_t1	Abs_t2	neck_flexion	neck_bending	neck_rotation	arm_flex_r	arm_add_r	arm_rot_r	elbow_flex_r	pro_sup_r	wrist_flex_r	wrist_dev_r	arm_flex_l	arm_add_l	arm_rot_l	elbow_flex_l	pro_sup_l	wrist_flex_l	wrist_dev_l
2.533333	0.064296	-6.684694	97.002356	0.238712	0.842968	0.722936	5.535319	-0.400887	-15.642832	10.573404	0.184541	22.698900	-0.590105	0.000000	8.346519	-3.633166	11.092769	12.844304	0.224175	21.231913	-5.915314	0.000000	-0.191509	-0.278367	-2.056794	-0.355651	-0.370228	-2.185344	-0.314630	-0.676821	-2.185344	-0.218875	-0.676821	-1.799695	-0.177835	-0.567646	-1.671145	-0.109428	-0.431190	-1.542596	-1.367928	-3.148942	-11.439272	0.000000	0.000000	-3.244842	1.063134	12.585882	30.241425	-9.055452	25.056558	108.198053	79.213323	13.300389	33.170554	-9.636503	-9.560370	23.292292	41.557987	88.391107	-16.093015	9.638070
2.550000	-0.003492	-6.723053	97.080055	0.238742	0.843079	0.723237	5.591361	-0.508575	-16.102659	10.605235	0.185096	22.820350	-0.035480	0.000000	8.444134	-3.515350	11.459898	12.832036	0.223961	21.228297	-6.026037	0.000000	-0.191830	-0.289153	-2.016544	-0.356248	-0.384573	-2.142578	-0.315158	-0.703045	-2.142578	-0.219243	-0.703045	-1.764476	-0.178134	-0.589640	-1.638442	-0.109612	-0.447897	-1.512408	-1.370225	-3.270951	-11.215415	0.000000	0.000000	-3.214445	1.127571	12.229837	30.881185	-9.002005	24.642317	108.896765	78.018036	13.023762	33.131472	-9.290184	-9.686557	23.879246	41.196993	88.320519	-16.033187	9.724037
2.566667	-0.084130	-6.752913	97.158907	0.238765	0.843145	0.723578	5.639515	-0.636037	-16.590188	10.646505	0.185817	22.950691	0.541663	0.000000	8.545167	-3.379717	11.872886	12.827916	0.223889	21.235802	-6.142273	0.000000	-0.195030	-0.301562	-1.981058	-0.362190	-0.401078	-2.104874	-0.320415	-0.733218	-2.104874	-0.222900	-0.733218	-1.733426	-0.181105	-0.614945	-1.609610	-0.111440	-0.467120	-1.485794	-1.393080	-3.411330	-11.018052	0.000000	0.000000	-3.265064	1.190096	11.889337	31.653036	-9.006760	24.337649	109.754195	76.439347	12.386615	33.131481	-8.978657	-9.799034	24.377522	40.870163	88.253757	-16.018366	9.777159
2.583333	-0.179356	-6.781256	97.233991	0.238803	0.843167	0.723983	5.688901	-0.771608	-16.963255	10.689207	0.186562	23.036297	0.930458	0.000000	8.656939	-3.231815	12.274086	12.830674	0.223938	21.265120	-6.195577	0.000000	-0.200800	-0.316208	-1.954527	-0.372906	-0.420557	-2.076685	-0.329895	-0.768829	-2.076685	-0.229495	-0.768829	-1.710211	-0.186463	-0.644812	-1.588053	-0.114737	-0.489807	-1.465895	-1.434296	-3.577013	-10.870491	0.000000	0.000000	-3.400303	1.259580	11.578014	32.549010	-9.022059	24.102078	110.740777	75.046363	11.678879	33.150664	-8.718233	-9.897236	24.746688	40.591591	88.197601	-16.030572	9.801769
2.600000	-0.281060	-6.807991	97.298315	0.238844	0.843143	0.724477	5.747016	-0.913712	-17.263867	10.746853	0.187568	23.095497	1.192626	0.000000	8.779496	-3.080039	12.641199	12.843091	0.224154	21.309028	-6.201795	0.000000	-0.209515	-0.331827	-1.938202	-0.389090	-0.441330	-2.059339	-0.344212	-0.806805	-2.059339	-0.239455	-0.806805	-1.695927	-0.194556	-0.676662	-1.574789	-0.119717	-0.514001	-1.453651	-1.496545	-3.753698	-10.779697	0.000000	0.000000	-3.616328	1.310149	11.319396	33.580577	-9.059286	23.953039	111.804875	73.666742	10.941136	33.182802	-8.506089	-9.988907	25.003533	40.373677	88.152759	-16.047418	9.797397
2.616667	-0.379989	-6.839589	97.350728	0.238893	0.843060	0.725083	5.820040	-1.050181	-17.479790	10.808407	0.188642	23.125410	1.317704	0.000000	8.918056	-2.935780	12.958010	12.862613	0.224495	21.370231	-6.160378	0.000000	-0.220325	-0.347485	-1.931058	-0.409166	-0.462155	-2.051749	-0.361972	-0.844875	-2.051749	-0.251810	-0.844875	-1.689676	-0.204594	-0.708591	-1.568985	-0.125894	-0.538254	-1.448293	-1.573761	-3.930819	-10.739965	0.000000	0.000000	-3.894938	1.351313	11.100569	34.725474	-9.105642	23.906947	112.937850	72.571450	10.015680	33.204497	-8.347817	-10.061901	25.114095	40.233679	88.127821	-16.105402	9.786596
2.633333	-0.462052	-6.880118	97.387694	0.238905	0.842888	0.725846	5.930114	-1.171233	-17.585291	10.899765	0.190237	23.132769	1.285625	0.000000	9.084499	-2.810983	13.200276	12.907740	0.225283	21.456039	-6.090009	0.000000	-0.232675	-0.359890	-1.938550	-0.432101	-0.478654	-2.059709	-0.382262	-0.875038	-2.059709	-0.265925	-0.875038	-1.696231	-0.216062	-0.733889	-1.575072	-0.132951	-0.557470	-1.453912	-1.661977	-4.071153	-10.781632	0.000000	0.000000	-4.197220	1.326578	11.024223	36.048370	-9.151035	23.985896	114.041723	71.761005	9.176254	33.186978	-8.251553	-10.108939	25.077363	40.190606	88.121873	-16.207198	9.757350
2.650000	-0.527882	-6.932663	97.412402	0.238903	0.842620	0.726738	6.071693	-1.271444	-17.564566	11.000963	0.192003	23.130297	1.089402	0.000000	9.273793	-2.708252	13.358105	12.972102	0.226406	21.554775	-5.988427	0.000000	-0.245591	-0.369809	-1.954455	-0.456087	-0.491846	-2.076608	-0.403481	-0.899154	-2.076608	-0.280686	-0.899154	-1.710148	-0.228056	-0.754114	-1.587994	-0.140331	-0.572834	-1.465841	-1.754231	-4.183353	-10.870091	0.000000	0.000000	-4.489318	1.281061	11.032476	37.502938	-9.196739	24.149867	115.119664	71.283630	8.317775	33.127035	-8.211985	-10.140752	24.906909	40.262109	88.141903	-16.337856	9.723572
2.666667	-0.563676	-6.996966	97.384292	0.238887	0.842247	0.727766	6.261004	-1.344907	-17.455247	11.137169	0.194380	23.156892	0.856524	0.000000	9.483752	-2.643709	13.394926	13.072629	0.228160	21.672111	-5.888828	0.000000	-0.258995	-0.374566	-1.966502	-0.480980	-0.498172	-2.089408	-0.425503	-0.910719	-2.089408	-0.296005	-0.910719	-1.720689	-0.240503	-0.763814	-1.597783	-0.147990	-0.580202	-1.474876	-1.849976	-4.237160	-10.937094	0.000000	0.000000	-4.728380	1.191763	11.127446	39.094223	-9.284748	24.421444	116.146208	70.700657	7.260913	33.050008	-8.190522	-10.162539	24.712173	40.430660	88.175657	-16.537017	9.697764
2.683333	-0.562505	-7.078253	97.328408	0.238821	0.841760	0.728871	6.491070	-1.385159	-17.293484	11.292026	0.197083	23.216135	0.617896	0.000000	9.715810	-2.621266	13.337260	13.208179	0.230526	21.798196	-5.806963	0.000000	-0.271308	-0.373120	-1.977024	-0.503846	-0.496250	-2.100588	-0.445732	-0.907204	-2.100588	-0.310078	-0.907204	-1.729896	-0.251936	-0.760867	-1.606332	-0.155025	-0.577963	-1.482768	-1.937925	-4.220809	-10.995615	0.000000	0.000000	-4.888409	1.065224	11.313336	40.806004	-9.433152	24.830301	117.139332	70.074812	5.833228	32.982378	-8.197112	-10.154821	24.452856	40.686071	88.229874	-16.754933	9.675179
2.700000	-0.523239	-7.173059	97.271918	0.238681	0.841173	0.729997	6.744991	-1.389764	-17.093886	11.450198	0.199844	23.304137	0.368190	0.000000	9.962658	-2.638852	13.212062	13.376167	0.233458	21.920116	-5.750967	0.000000	-0.282227	-0.365692	-1.986565	-0.524124	-0.486371	-2.110725	-0.463671	-0.889144	-2.110725	-0.322557	-0.889144	-1.738244	-0.262076	-0.745719	-1.614084	-0.161265	-0.566457	-1.489924	-2.015920	-4.136782	-11.048678	0.000000	0.000000	-4.964650	0.923720	11.551995	42.567110	-9.617849	25.277171	118.116835	69.758514	4.295436	32.936465	-8.221602	-10.119265	24.156647	41.004835	88.302239	-16.968686	9.644389
2.716667	-0.453433	-7.278943	97.214526	0.238469	0.840506	0.731114	7.013505	-1.363661	-16.846468	11.605154	0.202548	23.412347	0.098779	0.000000	10.214079	-2.690014	13.013523	13.565711	0.236766	22.021793	-5.711043	0.000000	-0.291837	-0.352951	-1.996087	-0.541971	-0.469424	-2.120842	-0.479460	-0.858164	-2.120842	-0.333541	-0.858164	-1.746576	-0.271000	-0.719737	-1.621820	-0.166756	-0.546721	-1.497065	-2.084565	-3.992648	-11.101635	0.000000	0.000000	-4.956553	0.760715	11.881685	44.338745	-9.822550	25.743801	119.075506	69.737155	2.701165	32.909343	-8.278605	-10.042532	23.788034	41.376768	88.386729	-17.185118	9.613543
2.733333	-0.345989	-7.387979	97.184028	0.238166	0.839788	0.732176	7.279981	-1.300010	-16.607488	11.750050	0.205077	23.531927	-0.168686	0.000000	10.463931	-2.777816	12.795195	13.774600	0.240412	22.112532	-5.691772	0.000000	-0.300101	-0.334935	-2.004556	-0.557318	-0.445464	-2.129841	-0.493037	-0.814362	-2.129841	-0.342986	-0.814362	-1.753987	-0.278674	-0.683000	-1.628702	-0.171478	-0.518815	-1.503417	-2.143595	-3.788855	-11.148742	0.000000	0.000000	-4.906386	0.575493	12.200514	46.043781	-10.046566	26.180751	120.046377	70.062949	1.027439	32.914168	-8.337756	-9.953815	23.455203	41.774793	88.476407	-17.370858	9.605075
2.750000	-0.200851	-7.488544	97.139992	0.237829	0.839025	0.733168	7.538713	-1.193291	-16.336494	11.893521	0.207581	23.658792	-0.453368	0.000000	10.695659	-2.908326	12.523797	13.999210	0.244332	22.216069	-5.693945	0.000000	-0.307906	-0.311522	-2.012151	-0.571813	-0.414324	-2.137911	-0.505859	-0.757434	-2.137911	-0.351906	-0.757434	-1.760633	-0.285922	-0.635255	-1.634873	-0.175938	-0.482547	-1.509114	-2.199344	-3.523997	-11.190983	0.000000	0.000000	-4.841720	0.349698	12.553863	47.692508	-10.283098	26.664451	120.993557	70.716318	-0.803549	32.933946	-8.442169	-9.849108	23.097766	42.218385	88.572735	-17.536323	9.604290
